<?xml version="1.0" encoding="UTF-8"?><svg id="Layer_1" xmlns="http://www.w3.org/2000/svg" viewBox="5 85 270 110"><defs><style>.cls-1{fill-rule:evenodd;}.cls-1,.cls-2{fill:#384c68;}.cls-3{fill:#ef4123;}</style></defs><path class="cls-2" d="M51.95,147.43c-1.7,4.24-4.5,7.31-8.41,9.21-3.91,1.9-8.56,2.85-13.96,2.85-3.57,0-6.81-.37-9.71-1.1-2.9-.74-5.39-1.89-7.47-3.45-2.08-1.56-3.68-3.56-4.82-5.99-1.14-2.43-1.71-5.35-1.71-8.74s.57-6.31,1.71-8.74c1.14-2.43,2.75-4.43,4.82-5.99,2.08-1.56,4.56-2.71,7.47-3.45,2.9-.74,6.14-1.11,9.71-1.11,7.77,0,13.55,1.88,17.35,5.63,3.79,3.75,5.69,9,5.69,15.74v1.07H18.07v.13c0,.85.22,1.77.67,2.78.45,1,1.14,1.94,2.08,2.81.94.87,2.13,1.6,3.58,2.18,1.45.58,3.18.87,5.19.87,4.87,0,8.13-1.56,9.78-4.69h12.59ZM40.44,136.38v-.13c0-.49-.18-1.18-.54-2.08-.36-.89-.96-1.77-1.81-2.65-.85-.87-1.99-1.63-3.42-2.28-1.43-.65-3.21-.97-5.36-.97-2.37,0-4.28.38-5.73,1.14-1.45.76-2.59,1.61-3.42,2.54-.83.94-1.38,1.84-1.67,2.71-.29.87-.44,1.4-.44,1.57v.13h22.37Z"/><path class="cls-3" d="M75.19,148.1l-5.58,10.05h-15.95l31.38-57.84h16.41l12.65,57.84h-16.03l-2.17-10.05h-20.71ZM90.42,118.18h-.15l-9.12,18.41h12.5l-3.23-18.41Z"/><path class="cls-3" d="M142.25,118.8l-3.32,21.02c-.79,4.99-.12,8.51,5.63,8.51s7.54-3.53,8.32-8.51l3.32-21.02h13.96l-3.74,23.7c-2.05,12.96-11.81,16.95-23.62,16.95s-20.31-3.99-18.26-16.95l3.74-23.7h13.96Z"/><path class="cls-3" d="M191.95,158.14h-13.96l4.4-27.84h-4.53l1.82-11.51h4.53l1.87-11.81h13.96l-1.87,11.81h7.9l-1.82,11.51h-7.9l-4.4,27.84Z"/><path class="cls-3" d="M255.73,138.51c-2.11,13.35-14.35,20.94-27.01,20.94s-22.51-7.52-20.39-20.94c2.12-13.42,14.37-21.02,27.02-21.02s22.5,7.59,20.38,21.02ZM223.05,138.51c-.79,4.99,1.9,8.82,7.58,8.82s9.58-3.83,10.37-8.82c.76-4.83-1.89-8.9-7.57-8.9s-9.62,4.07-10.38,8.9Z"/><path class="cls-1" d="M112.42,115.23c1.11-.09,4.97-.37,6.67-.54.37-.04,2.68-.7,2.68-.7.07-.1.15-.18.25-.25.09-.06.2-.11.31-.14h0c6.39-3.04,20.07-10.55,27.22-14.48,15.9-8.75,31.79-13.64,49.87-12.24,6.96.55,12.64,2.18,17.93,4.77,5.25,2.56,10.14,6.06,15.57,10.34,5.35.28,12.09,1.4,18.43,2.66,6.36,1.27,12.32,2.69,16.04,3.56h.02c.46.14.92.3,1.37.48.45.19.9.4,1.32.63h0c.17.09.21.22.25.34h0s0,.01,0,.03h0s.18.44.18.44h0c.37.89.62,1.69.79,2.5.16.76.26,1.53.34,2.42l.29.13.03.02c.73.48,1.33,1.01,1.7,1.55.29.41.45.83.44,1.24,0,.43-.18.84-.57,1.21-.34.31-.82.58-1.48.82h-.03s-.33.08-.33.08c-.02.31-.03.59-.05.87-.04.75-.08,1.46-.14,2.19-.35,3.83-1.28,6.13-6.45,5.65-.15-.02-.3-.19-.3-.34v-.2c.01-.16.16-.32.31-.33,4.79-.37,4.86-1.89,5.01-5.61.03-.81.07-1.72.16-2.79h0c.01-.21.16-.36.35-.46.12-.07.26-.12.35-.14h0c1.37-.41,1.88-.79,1.8-1.15-.1-.45-.86-.98-2.02-1.58h0c-.07-.04-.14-.08-.21-.15-.1-.09-.17-.2-.19-.35h0c-.08-.46-.15-.89-.21-1.3-.19-1.25-.34-2.28-.93-3.62v-.02s-.09-.22-.09-.22l-2.11-.78-4.34-1.12h.02c-.8-.17-1.61-.33-2.41-.5-9.18-1.91-18.48-3.84-27.78-4.62-.08,0-.16-.02-.24-.05-.08-.03-.15-.06-.22-.11h0c-4.82-3.93-9.91-7.1-15.32-9.44-5.4-2.35-11.12-3.88-17.19-4.53-15.61-1.68-27.62,2.06-41.86,8.45-7.37,3.31-33.16,17.32-36.2,17.94-4.38.89-7.39.02-9.47.33-.95.15-1.45-.73.48-.88Z"/><path class="cls-2" d="M189.19,180.81c-.36,2.27-2.5,4.16-4.81,4.16s-3.86-1.88-3.5-4.16c.36-2.31,2.51-4.16,4.81-4.16s3.87,1.85,3.5,4.16Z"/><path class="cls-2" d="M201.69,168.3h.07c1.85-2.03,3.86-2.88,6.21-2.88,2.63,0,4.74,1.06,5.67,3.48,1.6-2.27,4.25-3.48,6.73-3.48,4.62,0,5.74,3.02,5.08,7.21l-1.83,11.62h-6.47l1.37-8.71c.3-1.88.86-4.97-1.88-4.97-2.98,0-3.53,2.81-3.87,4.97l-1.37,8.71h-6.47l1.37-8.71c.32-2.03.81-5.12-2.07-5.12s-3.37,3.09-3.69,5.12l-1.37,8.71h-6.47l2.88-18.23h6.47l-.36,2.27Z"/><path class="cls-2" d="M228.08,166.03h7.46l3.39,9.35,6.24-9.35h7.36l-18.91,27.33h-7.25l8.05-11.59-6.33-15.74Z"/><path class="cls-2" d="M266.33,157.74l1.47,5.51,1.49-5.51h2.47v8.13h-1.52v-6.34l-1.66,6.34-1.56-.02-1.57-6.29s-.06.07-.06.07v6.24h-1.49v-8.13h2.43Z"/><polygon class="cls-2" points="262.83 157.74 262.83 159.11 260.42 159.11 260.42 165.87 258.81 165.87 258.81 159.11 256.41 159.11 256.37 159.06 256.37 157.74 262.83 157.74"/></svg>